<svg xmlns="http://www.w3.org/2000/svg" viewBox="0 0 35 35"><path d="M1 1h7v7h-7zM13 1h3v1h1v2h2v1h-2v1h2v-1h1v-1h1v1h1v1h1v1h-1v1h-1v-2h-1v2h-1v-1h-1v1h-1v-1h-1v-2h-1v-1h1v-1h-1v1h-3v-1h2v-1h-1zM19 1h4v1h1v2h-2v-1h-1v-1h-1v1h-1zM27 1h7v7h-7zM2 2v5h5v-5zM28 2v5h5v-5zM3 3h3v3h-3zM9 3h1v1h2v1h-1v1h-1v2h1v-1h1v2h-1v1h-1v-1h-1zM29 3h3v3h-3zM24 4h2v4h-1v-2h-2v-1h1zM13 5h1v1h1v1h-1v2h1v1h-3v-1h1zM15 7h1v1h-1zM23 7h1v1h1v2h1v1h-2v-1h-1v1h-1v1h1v1h-2v-2h-2v1h-1v-2h-2v-2h1v1h2v1h1v-1h1v1h1v-2h1zM1 9h1v1h1v1h-1v1h-1zM3 9h5v1h-2v1h2v1h-1v1h-2v-2h-1v-1h-1zM27 9h5v1h2v1h-1v2h-3v-1h1v-2h-3v1h1v2h-1v-1h-1v2h-2v-1h1v-2h1zM8 10h2v1h1v2h-1v-1h-1v-1h-1zM15 10h1v1h-1zM3 11h1v2h-1zM13 11h1v1h-1zM16 11h1v1h-1zM15 12h1v1h-1zM19 12h1v1h1v1h1v1h-3zM4 13h1v1h-1zM7 13h3v1h-3zM12 13h1v1h3v-1h1v1h1v1h-4v1h-1v-1h-2v-1h1zM29 13h1v1h-1zM1 14h2v2h1v-1h2v3h-1v-1h-2v1h-1v2h-1v-3h1v-2h-1zM6 14h1v1h-1zM23 14h2v1h-1v1h-1zM28 14h1v1h1v1h1v-2h3v1h-1v3h-1v-1h-2v1h-1v-2h-1zM7 15h1v1h-1zM8 16h1v1h1v2h-1v-1h-2v-1h1zM12 16h1v1h1v-1h1v2h-3zM17 16h1v1h1v1h2v1h-2v1h1v1h-2v-1h-2v-1h2v-1h-1zM20 16h1v1h-1zM22 16h1v1h2v2h-2v2h1v1h-1v1h-1v1h1v1h-2v-2h-2v-1h2v-1h1v-1h-1v-1h1v-1h-1v-1h1zM25 16h2v2h1v2h-1v2h-2v-1h-1v-1h2v-3h-1zM4 18h1v1h-1zM11 18h1v2h1v-1h1v2h-2v1h1v1h-1v1h-1v-1h-1v1h-1v1h2v1h1v1h-3v-1h-2v-1h1v-1h-1v-1h1v-1h-1v1h-1v1h-1v-2h1v-2h1v1h1v-1h2v1h-1v1h1v-1h1zM15 18h1v1h-1zM33 18h1v1h-1zM3 19h1v1h1v1h-2zM7 19h1v1h-1zM29 19h4v1h-1v1h-1v-1h-1v1h1v2h-1v-1h-2v-1h1zM2 21h1v2h-1v3h-1v-4h1zM14 21h1v1h-1zM16 21h2v1h-1v1h2v1h-2v1h2v1h-1v2h-2v-1h1v-1h-3v-1h1v-3h1zM24 22h1v1h-1zM27 22h1v1h1v2h1v5h4v1h-5v1h-2v2h-4v-1h1v-1h-1v-1h1v-1h1v3h1v-2h2v-1h-3v-1h-1v1h-1v-1h-1v-1h2v-1h1v-2h-1v-1h1v-1h1v1h1v1h1v-1h-1zM32 22h2v1h-1v1h-1v1h-1v-2h1zM4 24h1v1h-1zM19 24h1v1h-1zM33 24h1v1h-1zM3 25h1v1h-1zM12 25h1v1h-1zM32 25h1v1h-1zM13 26h1v1h-1zM19 26h4v1h-3v1h-1zM26 26v3h3v-3zM1 27h7v7h-7zM12 27h1v1h-1zM27 27h1v1h-1zM32 27h1v1h-1zM2 28v5h5v-5zM9 28h1v1h1v2h1v1h-3zM11 28h1v1h-1zM13 28h3v1h1v1h2v2h-1v-1h-2v-1h-2v-1h-1zM31 28h1v1h-1zM3 29h3v3h-3zM19 29h1v1h-1zM20 30h3v1h-3zM13 31h3v2h-1v1h-1v-1h-1zM17 32h1v1h1v1h-2zM22 32h1v1h-1zM29 32h3v1h-1v1h-2zM9 33h1v1h-1zM12 33h1v1h-1zM20 33h2v1h-2zM32 33h1v1h-1z"/></svg>